<mxfile host="app.diagrams.net" modified="2022-11-14T17:16:58.916Z" agent="5.0 (Windows NT 10.0; Win64; x64) AppleWebKit/537.36 (KHTML, like Gecko) Chrome/106.0.0.0 Safari/537.36 OPR/92.0.0.0" etag="nP7fy0tET1pKrUSGeSAd" version="20.5.3" type="github">
  <diagram id="NI8cGjx2e0_erqWGMtqb" name="Pagina-1">
    <mxGraphModel dx="553" dy="306" grid="1" gridSize="10" guides="1" tooltips="1" connect="1" arrows="1" fold="1" page="1" pageScale="1" pageWidth="827" pageHeight="1169" math="0" shadow="0">
      <root>
        <mxCell id="0" />
        <mxCell id="1" parent="0" />
        <mxCell id="Cgxc2L23HCAgbrVLqJiB-1" value="&lt;b&gt;GameView&lt;/b&gt;" style="html=1;" vertex="1" parent="1">
          <mxGeometry x="280" y="20" width="80" height="30" as="geometry" />
        </mxCell>
        <mxCell id="Cgxc2L23HCAgbrVLqJiB-2" value="" style="endArrow=open;endSize=12;dashed=1;html=1;rounded=0;exitX=0.25;exitY=1;exitDx=0;exitDy=0;" edge="1" parent="1" source="Cgxc2L23HCAgbrVLqJiB-1">
          <mxGeometry x="-0.4425" y="-39" width="160" relative="1" as="geometry">
            <mxPoint x="717.5" y="365" as="sourcePoint" />
            <mxPoint x="300" y="150" as="targetPoint" />
            <mxPoint as="offset" />
          </mxGeometry>
        </mxCell>
        <mxCell id="Cgxc2L23HCAgbrVLqJiB-3" value="&lt;b&gt;GameViewInitializer&lt;/b&gt;" style="html=1;" vertex="1" parent="1">
          <mxGeometry x="200" y="150" width="130" height="30" as="geometry" />
        </mxCell>
        <mxCell id="Cgxc2L23HCAgbrVLqJiB-4" value="" style="endArrow=diamondThin;endFill=1;endSize=24;html=1;rounded=0;entryX=0.75;entryY=1;entryDx=0;entryDy=0;" edge="1" parent="1" target="Cgxc2L23HCAgbrVLqJiB-1">
          <mxGeometry width="160" relative="1" as="geometry">
            <mxPoint x="340" y="130" as="sourcePoint" />
            <mxPoint x="808" y="305" as="targetPoint" />
          </mxGeometry>
        </mxCell>
        <mxCell id="Cgxc2L23HCAgbrVLqJiB-5" value="" style="endArrow=none;html=1;rounded=0;entryX=0;entryY=0.5;entryDx=0;entryDy=0;" edge="1" parent="1" target="Cgxc2L23HCAgbrVLqJiB-6">
          <mxGeometry width="50" height="50" relative="1" as="geometry">
            <mxPoint x="340" y="130" as="sourcePoint" />
            <mxPoint x="520" y="130" as="targetPoint" />
          </mxGeometry>
        </mxCell>
        <mxCell id="Cgxc2L23HCAgbrVLqJiB-6" value="&lt;b&gt;PausePane&lt;/b&gt;" style="html=1;" vertex="1" parent="1">
          <mxGeometry x="430" y="115" width="90" height="30" as="geometry" />
        </mxCell>
        <mxCell id="Cgxc2L23HCAgbrVLqJiB-7" value="" style="endArrow=none;html=1;rounded=0;exitX=0;exitY=0.5;exitDx=0;exitDy=0;" edge="1" parent="1" source="Cgxc2L23HCAgbrVLqJiB-8">
          <mxGeometry width="50" height="50" relative="1" as="geometry">
            <mxPoint x="480" y="220" as="sourcePoint" />
            <mxPoint x="400" y="130" as="targetPoint" />
            <Array as="points">
              <mxPoint x="400" y="220" />
            </Array>
          </mxGeometry>
        </mxCell>
        <mxCell id="Cgxc2L23HCAgbrVLqJiB-8" value="&lt;b&gt;SaveGamePane&lt;/b&gt;" style="html=1;" vertex="1" parent="1">
          <mxGeometry x="470" y="205" width="110" height="30" as="geometry" />
        </mxCell>
        <mxCell id="Cgxc2L23HCAgbrVLqJiB-9" value="" style="endArrow=diamondThin;endFill=1;endSize=24;html=1;rounded=0;entryX=0.75;entryY=1;entryDx=0;entryDy=0;exitX=0.25;exitY=0;exitDx=0;exitDy=0;" edge="1" parent="1" source="Cgxc2L23HCAgbrVLqJiB-8" target="Cgxc2L23HCAgbrVLqJiB-6">
          <mxGeometry width="160" relative="1" as="geometry">
            <mxPoint x="525" y="200" as="sourcePoint" />
            <mxPoint x="524.8" y="155" as="targetPoint" />
          </mxGeometry>
        </mxCell>
        <mxCell id="Cgxc2L23HCAgbrVLqJiB-11" value="" style="shape=requiredInterface;html=1;verticalLabelPosition=bottom;sketch=0;rotation=90;aspect=fixed;" vertex="1" parent="1">
          <mxGeometry x="546.5" y="24" width="11" height="22" as="geometry" />
        </mxCell>
        <mxCell id="Cgxc2L23HCAgbrVLqJiB-12" value="ILogic" style="text;html=1;strokeColor=none;fillColor=none;align=center;verticalAlign=middle;whiteSpace=wrap;rounded=0;" vertex="1" parent="1">
          <mxGeometry x="492.5" y="20" width="60" height="30" as="geometry" />
        </mxCell>
        <mxCell id="Cgxc2L23HCAgbrVLqJiB-13" value="" style="endArrow=none;html=1;rounded=0;exitX=0.75;exitY=0;exitDx=0;exitDy=0;entryX=1;entryY=0.5;entryDx=0;entryDy=0;entryPerimeter=0;" edge="1" parent="1" source="Cgxc2L23HCAgbrVLqJiB-8" target="Cgxc2L23HCAgbrVLqJiB-11">
          <mxGeometry width="50" height="50" relative="1" as="geometry">
            <mxPoint x="640" y="90" as="sourcePoint" />
            <mxPoint x="690" y="40" as="targetPoint" />
          </mxGeometry>
        </mxCell>
        <mxCell id="Cgxc2L23HCAgbrVLqJiB-14" value="" style="endArrow=none;html=1;rounded=0;exitX=1;exitY=0.5;exitDx=0;exitDy=0;" edge="1" parent="1" source="Cgxc2L23HCAgbrVLqJiB-6">
          <mxGeometry width="50" height="50" relative="1" as="geometry">
            <mxPoint x="430" y="160" as="sourcePoint" />
            <mxPoint x="552" y="130" as="targetPoint" />
          </mxGeometry>
        </mxCell>
        <mxCell id="Cgxc2L23HCAgbrVLqJiB-15" value="game" style="shape=umlFrame;whiteSpace=wrap;html=1;width=60;height=20;" vertex="1" parent="1">
          <mxGeometry x="170" y="90" width="430" height="170" as="geometry" />
        </mxCell>
      </root>
    </mxGraphModel>
  </diagram>
</mxfile>
